<svg xmlns="http://www.w3.org/2000/svg" width="860" height="332" viewBox="0 0 860 332" role="img" aria-labelledby="title">
<title id="title">2024–26 · lead software engineer @ Great Learning. Built AI mentors that read the course, the subtitles and the assignment before answering. Negative feedback: −36% across 100K+ interactions.</title>
<style>
text{font-family:ui-monospace,SFMono-Regular,Menlo,Consolas,monospace;white-space:pre}
.i{transform-box:fill-box;transform-origin:center}.needle{transform-origin:50% 100%;transform:rotate(55deg)}.climb{transform:translate(84px,-72px)}
</style>
<defs><clipPath id="screen"><rect x="1" y="36" width="858" height="295" rx="9"/></clipPath>
<clipPath id="cardclip"><rect x="24" y="80" width="812" height="168" rx="10"/></clipPath></defs>
<rect x="0.5" y="0.5" width="859" height="331" rx="10" fill="#0D1117" stroke="#30363D"/>
<path d="M0.5 36V10.5a10 10 0 0 1 10-10h839a10 10 0 0 1 10 10V36z" fill="#161B22"/>
<circle cx="20" cy="18" r="6" fill="#FF5F57"/><circle cx="40" cy="18" r="6" fill="#FEBC2E"/><circle cx="60" cy="18" r="6" fill="#28C840"/>
<text x="430" y="22" text-anchor="middle" fill="#8D96A0" font-size="12px">anjali — career.vhs — zsh</text>
<g clip-path="url(#screen)">
<text x="24" y="62" font-size="13px"><tspan fill="#3FB950">anjali@profile:~$ </tspan><tspan fill="#E6EDF3">anjali --rewind --scene 2</tspan></text>
<text x="836" y="62" text-anchor="end" font-size="13px" font-weight="800" fill="#E6EDF3" letter-spacing="1">❚❚ PAUSED · 2/8</text>
<rect x="24" y="80" width="812" height="168" rx="10" fill="#161B22" stroke="#30363D"/>
<g clip-path="url(#cardclip)"><g opacity="1">
<circle cx="108" cy="176" r="58" fill="#3FB950" fill-opacity=".1"/>
<g transform="translate(52 120)">
    <rect x="2" y="14" width="32" height="22" rx="4" fill="none" stroke="#E6EDF3" stroke-width="2.5"/><path d="M14 19v12l10-6z" fill="#3FB950"/>
    <rect x="2" y="45" width="32" height="22" rx="4" fill="none" stroke="#E6EDF3" stroke-width="2.5"/><text x="18" y="60" text-anchor="middle" font-size="10px" font-weight="800" fill="#E6EDF3">CC</text>
    <rect x="2" y="76" width="32" height="22" rx="4" fill="none" stroke="#E6EDF3" stroke-width="2.5"/><path d="M9 83h18M9 88h18M9 93h10" stroke="#8D96A0" stroke-width="2"/>
    <circle class="i flow d1" cx="40" cy="25" r="3" fill="#3FB950"/><circle class="i flow d2" cx="40" cy="56" r="3" fill="#3FB950"/><circle class="i flow d3" cx="40" cy="87" r="3" fill="#3FB950"/>
    <rect x="62" y="38" width="48" height="34" rx="10" fill="none" stroke="#E6EDF3" stroke-width="2.5"/><path d="M96 72l6 9-14-9" fill="#E6EDF3"/>
    <circle class="i dot" cx="75" cy="55" r="3.5" fill="#3FB950"/><circle class="i dot d2" cx="86" cy="55" r="3.5" fill="#3FB950"/><circle class="i dot d3" cx="97" cy="55" r="3.5" fill="#3FB950"/></g>
<text x="200" y="122" font-size="16px" font-weight="700" fill="#E6EDF3">lead software engineer @ Great Learning</text>
<text x="816" y="124" text-anchor="end" font-size="28px" font-weight="800" fill="#3FB950">2024–26</text>
<text x="200" y="156" font-size="14px" fill="#E6EDF3">Built AI mentors that read the course, the subtitles and the assignment</text>
<text x="200" y="178" font-size="14px" fill="#E6EDF3">before answering. Negative feedback: −36% across 100K+ interactions.</text>
<rect x="200" y="200" width="193.28" height="22" rx="11" fill="#3FB950" fill-opacity=".14" stroke="#3FB950" stroke-opacity=".5"/><text x="296.64" y="215" text-anchor="middle" font-size="12px" fill="#3FB950">prompt evaluation system</text><rect x="401.28" y="200" width="186.06" height="22" rx="11" fill="#3FB950" fill-opacity=".14" stroke="#3FB950" stroke-opacity=".5"/><text x="494.31" y="215" text-anchor="middle" font-size="12px" fill="#3FB950">video → structured JSON</text>
</g></g>
<line x1="90" x2="770" y1="288" y2="288" stroke="#30363D" stroke-width="3"/>
<circle cx="90" cy="288" r="5" fill="#30363D"/><circle cx="203.33" cy="288" r="5" fill="#30363D"/><circle cx="316.67" cy="288" r="5" fill="#30363D"/><circle cx="430" cy="288" r="5" fill="#30363D"/><circle cx="543.33" cy="288" r="5" fill="#30363D"/><circle cx="656.67" cy="288" r="5" fill="#30363D"/><circle cx="770" cy="288" r="5" fill="#30363D"/>
<circle cx="656.67" cy="288" r="7" fill="#3FB950"/>
<text x="90" y="314" text-anchor="middle" font-size="11px" fill="#8D96A0">2017</text><text x="203.33" y="314" text-anchor="middle" font-size="11px" fill="#8D96A0">2018</text><text x="316.67" y="314" text-anchor="middle" font-size="11px" fill="#8D96A0">2019</text><text x="430" y="314" text-anchor="middle" font-size="11px" fill="#8D96A0">2020</text><text x="543.33" y="314" text-anchor="middle" font-size="11px" fill="#8D96A0">2021</text><text x="656.67" y="314" text-anchor="middle" font-size="11px" fill="#8D96A0">2024</text><text x="770" y="314" text-anchor="middle" font-size="11px" fill="#8D96A0">now</text>
<g transform="translate(656.67 0)"><path d="M-7 268h14l-7 9z" fill="#E6EDF3"/><line x1="0" x2="0" y1="277" y2="298" stroke="#E6EDF3" stroke-width="1.5" opacity=".7"/></g>
</g>
</svg>
