<svg xmlns="http://www.w3.org/2000/svg" width="860" height="332" viewBox="0 0 860 332" role="img" aria-labelledby="title">
<title id="title">2019–20 · SDE @ Applied AI Course. Core backend dev, from requirements to deploy: Django, Nginx, Fargate. Moved 1000s of users off Google Classroom. Evaluation: 75% faster.</title>
<style>
text{font-family:ui-monospace,SFMono-Regular,Menlo,Consolas,monospace;white-space:pre}
.i{transform-box:fill-box;transform-origin:center}.needle{transform-origin:50% 100%;transform:rotate(55deg)}.climb{transform:translate(84px,-72px)}
</style>
<defs><clipPath id="screen"><rect x="1" y="36" width="858" height="295" rx="9"/></clipPath>
<clipPath id="cardclip"><rect x="24" y="80" width="812" height="168" rx="10"/></clipPath></defs>
<rect x="0.5" y="0.5" width="859" height="331" rx="10" fill="#0D1117" stroke="#30363D"/>
<path d="M0.5 36V10.5a10 10 0 0 1 10-10h839a10 10 0 0 1 10 10V36z" fill="#161B22"/>
<circle cx="20" cy="18" r="6" fill="#FF5F57"/><circle cx="40" cy="18" r="6" fill="#FEBC2E"/><circle cx="60" cy="18" r="6" fill="#28C840"/>
<text x="430" y="22" text-anchor="middle" fill="#8D96A0" font-size="12px">anjali — career.vhs — zsh</text>
<g clip-path="url(#screen)">
<text x="24" y="62" font-size="13px"><tspan fill="#3FB950">anjali@profile:~$ </tspan><tspan fill="#E6EDF3">anjali --rewind --scene 5</tspan></text>
<text x="836" y="62" text-anchor="end" font-size="13px" font-weight="800" fill="#E6EDF3" letter-spacing="1">❚❚ PAUSED · 5/8</text>
<rect x="24" y="80" width="812" height="168" rx="10" fill="#161B22" stroke="#30363D"/>
<g clip-path="url(#cardclip)"><g opacity="1">
<circle cx="108" cy="176" r="58" fill="#3FB950" fill-opacity=".1"/>
<g transform="translate(52 120)">
    <path d="M30 58a16 16 0 0 1 6-31 22 22 0 0 1 41 3 15 15 0 0 1 5 28z" fill="none" stroke="#E6EDF3" stroke-width="3" stroke-linejoin="round"/>
    <g class="i up d1"><circle cx="36" cy="84" r="5" fill="#3FB950"/><path d="M29 100a7 7 0 0 1 14 0" fill="#3FB950"/></g><g class="i up d2"><circle cx="56" cy="84" r="5" fill="#3FB950"/><path d="M49 100a7 7 0 0 1 14 0" fill="#3FB950"/></g><g class="i up d3"><circle cx="76" cy="84" r="5" fill="#3FB950"/><path d="M69 100a7 7 0 0 1 14 0" fill="#3FB950"/></g></g>
<text x="200" y="122" font-size="16px" font-weight="700" fill="#E6EDF3">SDE @ Applied AI Course</text>
<text x="816" y="124" text-anchor="end" font-size="28px" font-weight="800" fill="#3FB950">2019–20</text>
<text x="200" y="156" font-size="14px" fill="#E6EDF3">Core backend dev, from requirements to deploy: Django, Nginx, Fargate.</text>
<text x="200" y="178" font-size="14px" fill="#E6EDF3">Moved 1000s of users off Google Classroom. Evaluation: 75% faster.</text>
<rect x="200" y="200" width="99.42" height="22" rx="11" fill="#3FB950" fill-opacity=".14" stroke="#3FB950" stroke-opacity=".5"/><text x="249.71" y="215" text-anchor="middle" font-size="12px" fill="#3FB950">Django REST</text><rect x="307.42" y="200" width="92.2" height="22" rx="11" fill="#3FB950" fill-opacity=".14" stroke="#3FB950" stroke-opacity=".5"/><text x="353.52" y="215" text-anchor="middle" font-size="12px" fill="#3FB950">PostgreSQL</text><rect x="407.62" y="200" width="84.98" height="22" rx="11" fill="#3FB950" fill-opacity=".14" stroke="#3FB950" stroke-opacity=".5"/><text x="450.11" y="215" text-anchor="middle" font-size="12px" fill="#3FB950">RDS + ELB</text>
</g></g>
<line x1="90" x2="770" y1="288" y2="288" stroke="#30363D" stroke-width="3"/>
<circle cx="90" cy="288" r="5" fill="#30363D"/><circle cx="203.33" cy="288" r="5" fill="#30363D"/><circle cx="316.67" cy="288" r="5" fill="#30363D"/><circle cx="430" cy="288" r="5" fill="#30363D"/><circle cx="543.33" cy="288" r="5" fill="#30363D"/><circle cx="656.67" cy="288" r="5" fill="#30363D"/><circle cx="770" cy="288" r="5" fill="#30363D"/>
<circle cx="316.67" cy="288" r="7" fill="#3FB950"/>
<text x="90" y="314" text-anchor="middle" font-size="11px" fill="#8D96A0">2017</text><text x="203.33" y="314" text-anchor="middle" font-size="11px" fill="#8D96A0">2018</text><text x="316.67" y="314" text-anchor="middle" font-size="11px" fill="#8D96A0">2019</text><text x="430" y="314" text-anchor="middle" font-size="11px" fill="#8D96A0">2020</text><text x="543.33" y="314" text-anchor="middle" font-size="11px" fill="#8D96A0">2021</text><text x="656.67" y="314" text-anchor="middle" font-size="11px" fill="#8D96A0">2024</text><text x="770" y="314" text-anchor="middle" font-size="11px" fill="#8D96A0">now</text>
<g transform="translate(316.67 0)"><path d="M-7 268h14l-7 9z" fill="#E6EDF3"/><line x1="0" x2="0" y1="277" y2="298" stroke="#E6EDF3" stroke-width="1.5" opacity=".7"/></g>
</g>
</svg>
