<svg xmlns="http://www.w3.org/2000/svg" width="860" height="332" viewBox="0 0 860 332" role="img" aria-labelledby="title">
<title id="title">2017 · software engineer intern @ Goomo. Rails intern. Built a flights dashboard, then an API debugging tool, so debugging APIs stopped being a manual sport.</title>
<style>
text{font-family:ui-monospace,SFMono-Regular,Menlo,Consolas,monospace;white-space:pre}
.i{transform-box:fill-box;transform-origin:center}.needle{transform-origin:50% 100%;transform:rotate(55deg)}.climb{transform:translate(84px,-72px)}
</style>
<defs><clipPath id="screen"><rect x="1" y="36" width="858" height="295" rx="9"/></clipPath>
<clipPath id="cardclip"><rect x="24" y="80" width="812" height="168" rx="10"/></clipPath></defs>
<rect x="0.5" y="0.5" width="859" height="331" rx="10" fill="#0D1117" stroke="#30363D"/>
<path d="M0.5 36V10.5a10 10 0 0 1 10-10h839a10 10 0 0 1 10 10V36z" fill="#161B22"/>
<circle cx="20" cy="18" r="6" fill="#FF5F57"/><circle cx="40" cy="18" r="6" fill="#FEBC2E"/><circle cx="60" cy="18" r="6" fill="#28C840"/>
<text x="430" y="22" text-anchor="middle" fill="#8D96A0" font-size="12px">anjali — career.vhs — zsh</text>
<g clip-path="url(#screen)">
<text x="24" y="62" font-size="13px"><tspan fill="#3FB950">anjali@profile:~$ </tspan><tspan fill="#E6EDF3">anjali --rewind --scene 7</tspan></text>
<text x="836" y="62" text-anchor="end" font-size="13px" font-weight="800" fill="#E6EDF3" letter-spacing="1">❚❚ PAUSED · 7/8</text>
<rect x="24" y="80" width="812" height="168" rx="10" fill="#161B22" stroke="#30363D"/>
<g clip-path="url(#cardclip)"><g opacity="1">
<circle cx="108" cy="176" r="58" fill="#3FB950" fill-opacity=".1"/>
<g transform="translate(52 120)">
    <g class="i wiggle"><path d="M38 52l-12-6M38 64H24M38 76l-12 6M74 52l12-6M74 64h14M74 76l12 6" stroke="#E6EDF3" stroke-width="3" stroke-linecap="round"/></g>
    <ellipse cx="56" cy="66" rx="18" ry="24" fill="#161B22" stroke="#E6EDF3" stroke-width="3"/><path d="M56 44v46" stroke="#E6EDF3" stroke-width="2"/>
    <circle cx="56" cy="38" r="9" fill="#161B22" stroke="#E6EDF3" stroke-width="3"/>
    <g class="i scan"><circle cx="78" cy="30" r="16" fill="#3FB950" fill-opacity=".15" stroke="#3FB950" stroke-width="3.5"/><path d="M90 42l14 14" stroke="#3FB950" stroke-width="5" stroke-linecap="round"/></g></g>
<text x="200" y="122" font-size="16px" font-weight="700" fill="#E6EDF3">software engineer intern @ Goomo</text>
<text x="816" y="124" text-anchor="end" font-size="28px" font-weight="800" fill="#3FB950">2017</text>
<text x="200" y="156" font-size="14px" fill="#E6EDF3">Rails intern. Built a flights dashboard, then an API debugging tool,</text>
<text x="200" y="178" font-size="14px" fill="#E6EDF3">so debugging APIs stopped being a manual sport.</text>
<rect x="200" y="200" width="113.86" height="22" rx="11" fill="#3FB950" fill-opacity=".14" stroke="#3FB950" stroke-opacity=".5"/><text x="256.93" y="215" text-anchor="middle" font-size="12px" fill="#3FB950">Ruby on Rails</text><rect x="321.86" y="200" width="149.96" height="22" rx="11" fill="#3FB950" fill-opacity=".14" stroke="#3FB950" stroke-opacity=".5"/><text x="396.84" y="215" text-anchor="middle" font-size="12px" fill="#3FB950">backend + frontend</text>
</g></g>
<line x1="90" x2="770" y1="288" y2="288" stroke="#30363D" stroke-width="3"/>
<circle cx="90" cy="288" r="5" fill="#30363D"/><circle cx="203.33" cy="288" r="5" fill="#30363D"/><circle cx="316.67" cy="288" r="5" fill="#30363D"/><circle cx="430" cy="288" r="5" fill="#30363D"/><circle cx="543.33" cy="288" r="5" fill="#30363D"/><circle cx="656.67" cy="288" r="5" fill="#30363D"/><circle cx="770" cy="288" r="5" fill="#30363D"/>
<circle cx="90" cy="288" r="7" fill="#3FB950"/>
<text x="90" y="314" text-anchor="middle" font-size="11px" fill="#8D96A0">2017</text><text x="203.33" y="314" text-anchor="middle" font-size="11px" fill="#8D96A0">2018</text><text x="316.67" y="314" text-anchor="middle" font-size="11px" fill="#8D96A0">2019</text><text x="430" y="314" text-anchor="middle" font-size="11px" fill="#8D96A0">2020</text><text x="543.33" y="314" text-anchor="middle" font-size="11px" fill="#8D96A0">2021</text><text x="656.67" y="314" text-anchor="middle" font-size="11px" fill="#8D96A0">2024</text><text x="770" y="314" text-anchor="middle" font-size="11px" fill="#8D96A0">now</text>
<g transform="translate(90 0)"><path d="M-7 268h14l-7 9z" fill="#E6EDF3"/><line x1="0" x2="0" y1="277" y2="298" stroke="#E6EDF3" stroke-width="1.5" opacity=".7"/></g>
</g>
</svg>
